#N canvas 504 114 377 396 10;
#X obj 102 86 osc~ 1000;
#X obj 102 177 dac~ 1;
#X obj 101 138 *~;
#X obj 246 30 vsl 15 128 0 1 0 0 empty empty empty 0 -9 0 10 -262144
-1 -1 0 1;
#X floatatom 246 168 5 0 0 0 - - -;
#X obj 76 22 hsl 128 15 50 5000 0 0 empty empty empty -2 -8 0 10 -262144
-1 -1 0 1;
#X connect 0 0 2 0;
#X connect 2 0 1 0;
#X connect 3 0 4 0;
#X connect 4 0 2 1;
#X connect 5 0 0 0;
